# xmcd
#
# Track frame offsets:
#	150
#	17155
#	31940
#	49052
#	64295
#	82115
#	95917
#	110312
#	124247
#	141640
#	161930
#	176432
#	192540
#	211370
#	234545
#	249162
#	265812
#	279947
#	297027
#	316717
#	333085
#
# Disc length: 4688
#
# Revision: 4
# Processed by: cddbd v1.5.1PL0 Copyright (c) Steve Scherf et al.
# Submitted via: Grip 2.94
# Normalized: r3:DSETVAR1,TDELIM( - )
#
DISCID=37124e15
DTITLE=Various Artist - Ibiza Uncovered II
DYEAR=1900
DGENRE=
TTITLE0=Spiller - Groovejet
TTITLE1=Black Legend - You See The Trouble With Me
TTITLE2=Sonique - It Feels So Good
TTITLE3=True Steppers and Victoria Beckham - Out Of Your Mind
TTITLE4=Artful Dodger - Woman Trouble
TTITLE5=ATFC pres OnePhatDeeva - Bad Habit
TTITLE6=CZR ft Delano - I Want You
TTITLE7=Robbie Rivera pres Rhythm Bangers - Bang
TTITLE8=Tom Jones and Mouse T - Sex Bomb
TTITLE9=Tru Faith ft Dub Conspiracy - Freak Like Me
TTITLE10=Madison Avenue - Who The Hell Are You
TTITLE11=Encore ft Stephen Emmanual - Coochy Coo
TTITLE12=Mel C - I Turn To You
TTITLE13=Aurora - Ordinary World
TTITLE14=Alice Deejay - Will I Ever
TTITLE15=Marc Et Claude - I Need Your Lovin'
TTITLE16=Angelic - It's My Turn
TTITLE17=Delirium - Silnce
TTITLE18=Solar Stone - Seven Cities
TTITLE19=underworld - Cowgirl
TTITLE20=Frankie Goes To Hollywood - 2 Tribes
EXTD=
EXTT0=
EXTT1=
EXTT2=
EXTT3=
EXTT4=
EXTT5=
EXTT6=
EXTT7=
EXTT8=
EXTT9=
EXTT10=
EXTT11=
EXTT12=
EXTT13=
EXTT14=
EXTT15=
EXTT16=
EXTT17=
EXTT18=
EXTT19=
EXTT20=
PLAYORDER=
